<svg width="360" height="500" viewBox="0 0 360 500" fill="none" xmlns="http://www.w3.org/2000/svg">
<path d="M287.838 114.196C287.838 114.196 247.409 78.0405 190.531 86.1987C133.653 94.357 89.2066 138.45 52.2473 173.22C15.288 207.989 9.61964 256.365 37.0698 290.649C64.52 324.933 100.093 305.376 150.173 324.121C200.252 342.865 210.741 355.465 262.993 343.889C315.244 332.314 349.025 268.443 336.117 205.738C323.208 143.033 287.838 114.196 287.838 114.196Z" fill="#6D51FF"/>
<path opacity="0.8" d="M287.838 114.196C287.838 114.196 247.409 78.0405 190.531 86.1987C133.653 94.357 89.2066 138.45 52.2473 173.22C15.288 207.989 9.61964 256.365 37.0698 290.649C64.52 324.933 100.093 305.376 150.173 324.121C200.252 342.865 210.741 355.465 262.993 343.889C315.244 332.314 349.025 268.443 336.117 205.738C323.208 143.033 287.838 114.196 287.838 114.196Z" fill="white"/>
<path d="M329.39 242.31C324.85 239.84 322.78 241.9 321.13 239.84C319.48 237.78 325.68 232.4 313.28 227.03C313.28 227.03 312.46 215.47 295.52 215.03C278.58 214.59 283.13 226.6 278.59 229.49C274.05 232.38 272.81 227.84 268.26 230.73C263.71 233.62 265.78 239.4 262.07 240.23C258.36 241.06 253.39 236.51 248.85 239.4C244.31 242.29 244.3 244.77 242.24 244.77C240.18 244.77 236.04 243.12 233.57 244.77C231.1 246.42 228.2 248.49 228.2 248.49H332.7C332.7 248.49 333.94 244.79 329.39 242.31Z" fill="#6D51FF"/>
<path opacity="0.5" d="M329.39 242.31C324.85 239.84 322.78 241.9 321.13 239.84C319.48 237.78 325.68 232.4 313.28 227.03C313.28 227.03 312.46 215.47 295.52 215.03C278.58 214.59 283.13 226.6 278.59 229.49C274.05 232.38 272.81 227.84 268.26 230.73C263.71 233.62 265.78 239.4 262.07 240.23C258.36 241.06 253.39 236.51 248.85 239.4C244.31 242.29 244.3 244.77 242.24 244.77C240.18 244.77 236.04 243.12 233.57 244.77C231.1 246.42 228.2 248.49 228.2 248.49H332.7C332.7 248.49 333.94 244.79 329.39 242.31Z" fill="white"/>
<path d="M302.51 97.83C296.17 94.36 293.28 97.25 290.97 94.36C288.66 91.47 297.32 84 280 76.47C280 76.47 278.85 60.31 255.18 59.73C231.51 59.15 237.87 75.89 231.52 79.93C225.17 83.97 223.43 77.62 217.09 81.66C210.75 85.7 213.62 93.79 208.43 94.94C203.24 96.09 196.3 89.74 190 93.79C183.7 97.84 183.65 101.29 180.76 101.29C177.87 101.29 172.1 98.98 168.64 101.29C165.18 103.6 161.13 106.48 161.13 106.48H307.13C307.13 106.48 308.86 101.29 302.51 97.83Z" fill="#6D51FF"/>
<path opacity="0.5" d="M302.51 97.83C296.17 94.36 293.28 97.25 290.97 94.36C288.66 91.47 297.32 84 280 76.47C280 76.47 278.85 60.31 255.18 59.73C231.51 59.15 237.87 75.89 231.52 79.93C225.17 83.97 223.43 77.62 217.09 81.66C210.75 85.7 213.62 93.79 208.43 94.94C203.24 96.09 196.3 89.74 190 93.79C183.7 97.84 183.65 101.29 180.76 101.29C177.87 101.29 172.1 98.98 168.64 101.29C165.18 103.6 161.13 106.48 161.13 106.48H307.13C307.13 106.48 308.86 101.29 302.51 97.83Z" fill="white"/>
<path d="M135.72 171.62C131.18 169.14 129.11 171.21 127.46 169.14C125.81 167.07 132 161.71 119.61 156.34C119.61 156.34 118.78 144.77 101.85 144.34C84.92 143.91 89.46 155.91 84.91 158.8C80.36 161.69 79.13 157.15 74.59 160.04C70.05 162.93 72.11 168.71 68.39 169.54C64.67 170.37 59.72 165.82 55.17 168.71C50.62 171.6 50.63 174.08 48.56 174.08C46.49 174.08 42.37 172.43 39.89 174.08C37.41 175.73 34.52 177.8 34.52 177.8H139C139 177.8 140.26 174.1 135.72 171.62Z" fill="#6D51FF"/>
<path opacity="0.5" d="M135.72 171.62C131.18 169.14 129.11 171.21 127.46 169.14C125.81 167.07 132 161.71 119.61 156.34C119.61 156.34 118.78 144.77 101.85 144.34C84.92 143.91 89.46 155.91 84.91 158.8C80.36 161.69 79.13 157.15 74.59 160.04C70.05 162.93 72.11 168.71 68.39 169.54C64.67 170.37 59.72 165.82 55.17 168.71C50.62 171.6 50.63 174.08 48.56 174.08C46.49 174.08 42.37 172.43 39.89 174.08C37.41 175.73 34.52 177.8 34.52 177.8H139C139 177.8 140.26 174.1 135.72 171.62Z" fill="white"/>
<path d="M175.28 359.57H176.06C177.63 359.51 181.06 359.4 182 359.4C183.18 359.4 185.16 361.97 183.38 364.34C181.6 366.71 180.38 369.48 177.85 370.07C175.32 370.66 175.67 372.25 173.85 374.22C172.03 376.19 167.13 376.6 164.56 376C161.99 375.4 164.36 362.56 164.76 362C165.16 361.44 169.54 364.32 175.28 359.57Z" fill="white" stroke="#263238" stroke-linecap="round" stroke-linejoin="round"/>
<path d="M177.85 370.05C180.42 369.46 181.6 366.69 183.38 364.32C183.743 363.868 183.977 363.327 184.058 362.753C184.139 362.179 184.064 361.595 183.84 361.06C183.169 363.448 181.846 365.602 180.02 367.28C178.24 368.67 176.86 367.88 175.87 369.06C174.88 370.24 173.87 372.62 168.75 372.62C166.952 372.654 165.157 372.435 163.42 371.97C163.42 374.1 163.71 375.78 164.6 375.97C167.17 376.57 172.11 376.17 173.89 374.19C175.67 372.21 175.28 370.64 177.85 370.05Z" fill="white" stroke="#263238" stroke-linecap="round" stroke-linejoin="round"/>
<path d="M209.08 366.89C209.08 366.89 208.49 374.01 208.88 375.39C209.27 376.77 213.23 378.16 215.41 377.76C217.59 377.36 221.54 374.6 221.54 374.6C221.54 374.6 230.24 371.24 233.4 369.26C236.56 367.28 237.55 364.91 235.18 364.32C232.81 363.73 224.9 362.14 222.53 361.55C220.16 360.96 220.15 363.13 215.01 364.32C209.87 365.51 209.08 366.89 209.08 366.89Z" fill="white" stroke="#263238" stroke-linecap="round" stroke-linejoin="round"/>
<path d="M234 366.89C229.358 369.532 224.536 371.845 219.57 373.81C216.114 375.232 212.242 375.268 208.76 373.91C208.756 374.406 208.799 374.902 208.89 375.39C209.29 376.77 213.24 378.16 215.42 377.76C217.6 377.36 221.55 374.6 221.55 374.6C221.55 374.6 230.25 371.24 233.41 369.26C236.11 367.57 237.22 365.6 236.01 364.69C235.536 365.581 234.844 366.337 234 366.89Z" fill="white" stroke="#263238" stroke-linecap="round" stroke-linejoin="round"/>
<path d="M174.25 227.39C174.25 227.39 172 240 171.2 247.07C170.4 254.14 168.52 271.71 168.52 280.12C168.52 288.53 168 303.8 168 303.8C168 303.8 167.23 309.92 165.9 315.45C164.57 320.98 163.99 331.5 164.18 336.66C164.37 341.82 164.37 356.14 164.37 356.14C164.265 357.805 164.265 359.475 164.37 361.14C164.56 363.05 164.94 365.34 166.85 365.34C168.76 365.34 172.2 365.34 173.54 364.2C175.265 362.54 176.289 360.282 176.4 357.89C176.59 355.03 177.4 345.28 177.55 342.99C177.7 340.7 184.43 312.43 185.19 306.51C185.95 300.59 186.34 297.34 186.34 297.34L193.4 260.28L195.51 260.66C195.51 260.66 207.51 305.74 207.51 308.8C207.51 311.86 206.17 325.8 207.7 333.63C209.23 341.46 209 368.18 209 368.18C209.768 369.016 210.761 369.613 211.86 369.9C213.58 370.28 218.55 369.13 220.46 366.08C222.37 363.03 223.13 357.48 223.13 355.95C223.13 354.42 224.85 323.1 224.85 315.07C224.85 307.04 224.09 297.31 224.09 296.54C224.09 295.77 222.18 259.49 221.61 256.24C221.04 252.99 214.54 226.63 214.54 226.63C214.54 226.63 194.69 232.55 174.25 227.39Z" fill="#263238" stroke="#263238" stroke-linecap="round" stroke-linejoin="round"/>
<path d="M157.44 199.31C157.44 199.31 154.96 205.62 154.58 208.86C154.2 212.1 156.3 218.03 158.21 219.18C160.12 220.33 166.42 217.84 167.38 216.31C168.34 214.78 172.72 204.85 172.72 204.85C167.221 204.41 161.943 202.496 157.44 199.31Z" fill="white" stroke="#263238" stroke-linecap="round" stroke-linejoin="round"/>
<path d="M217.87 203.17L210.34 236.56H215.25L222.46 202.51L217.87 203.17Z" fill="#263238" stroke="#263238" stroke-linecap="round" stroke-linejoin="round"/>
<path d="M224 176.86C224 176.86 227.6 176.21 228.58 176.86C229.56 177.51 229.58 180.79 229.58 182.1C229.58 183.41 228.58 187.01 228.93 188.65C229.28 190.29 234.83 198.03 237.12 202.95C239.41 207.87 236.47 215.71 233.85 218.95C231.23 222.19 225.98 210.55 224.34 206.62C222.7 202.69 220.09 178.46 220.09 178.46L224 176.86Z" fill="white" stroke="#263238" stroke-linecap="round" stroke-linejoin="round"/>
<path d="M231 197.24C231 197.24 236.2 206.13 236.39 209C236.58 211.87 235.24 218 233.91 220.08C232.58 222.16 229.14 220.37 226.65 219.03C224.344 217.874 222.518 215.945 221.49 213.58C220.34 211.1 217.25 204.88 217.25 204.88C217.25 204.88 225.66 202.59 231 197.24Z" fill="white" stroke="#263238" stroke-linecap="round" stroke-linejoin="round"/>
<path d="M184.18 160C181.775 160.564 179.462 161.466 177.31 162.68C174.06 164.59 168.9 168.41 167.18 171.46C165.46 174.51 160.31 187.7 157.82 192.67C155.33 197.64 154.58 199.35 154.58 199.35C154.58 199.35 157.58 203.75 161.64 205.47C165.7 207.19 172.72 207.57 172.72 207.57C172.72 207.57 173.72 227.05 174.25 229.92C174.78 232.79 181.32 234.5 190.87 234.92C200.42 235.34 213.79 231.87 215.51 229.92C217.23 227.97 214.94 207.57 214.94 207.57C218.047 207.112 221.113 206.41 224.11 205.47C227.93 204.13 232.9 197.63 232.9 197.63C232.9 197.63 226.02 180.82 224.68 177.96C223.34 175.1 224.3 173.96 218.95 170.13C215.535 167.727 211.886 165.673 208.06 164C208.06 164 200.06 160.18 193.35 159.42C186.64 158.66 184.18 160 184.18 160Z" fill="white" stroke="#263238" stroke-linecap="round" stroke-linejoin="round"/>
<path d="M211.88 134C211.88 134 213.98 135.15 213.98 136.3C213.98 137.45 211.69 139.93 211.69 139.93C211.895 141.704 211.895 143.496 211.69 145.27C211.31 147.18 213.22 149.27 211.69 150.62C210.16 151.97 205.58 151.96 205.58 151.96L204.24 160.37L187.05 158.07L186.48 152.72C186.48 152.72 181.89 148.9 180.36 144.72C178.83 140.54 179.03 139.37 179.36 136.72C179.69 134.07 182.61 128.5 188.36 127.17C193.391 125.968 198.641 126.034 203.64 127.36C207.68 128.44 211.88 134 211.88 134Z" fill="white" stroke="#263238" stroke-linecap="round" stroke-linejoin="round"/>
<path d="M204.22 147.21V147.16V147.21Z" fill="white" stroke="#263238" stroke-linecap="round" stroke-linejoin="round"/>
<path d="M199.28 151.56C201.37 150.709 203.111 149.176 204.22 147.21C204.15 147.35 203.85 147.74 202.91 147.74C201.76 147.74 199.08 145.64 198.32 143.74C197.56 141.84 199.47 139.53 200.8 139.53C202.13 139.53 204.05 142.21 205.58 141.25C207.11 140.29 206.92 136.1 206.92 136.1C207.298 134.169 207.874 132.282 208.64 130.47C207.227 129.061 205.519 127.982 203.64 127.31C198.641 125.984 193.391 125.918 188.36 127.12C182.63 128.45 179.76 133.99 179.36 136.67C178.96 139.35 178.79 140.49 180.36 144.67C181.93 148.85 186.48 152.67 186.48 152.67C189.72 152.9 195.65 153.09 199.28 151.56Z" fill="#263238" stroke="#263238" stroke-linecap="round" stroke-linejoin="round"/>
<path d="M178.65 162.06C178.65 162.06 182.08 156.52 183.8 155.76C185.52 155 197.94 155 200.42 155.38C202.9 155.76 207.3 158.82 208.06 160.54C208.82 162.26 209.4 163.59 209.4 163.59V164.74C209.4 164.74 201.19 160.92 193.4 160.92C188.462 160.939 183.532 161.32 178.65 162.06Z" fill="white" stroke="#263238" stroke-linecap="round" stroke-linejoin="round"/>
<path d="M209.4 164.74C207.798 168.168 205.974 171.489 203.94 174.68C201.783 178.196 200.102 181.982 198.94 185.94L204.94 186.56C204.94 186.56 209.11 175.56 211.61 171.97C212.625 170.438 213.741 168.975 214.95 167.59C214.95 167.59 212.57 164.59 209.4 164.74Z" fill="#263238" stroke="#263238" stroke-linecap="round" stroke-linejoin="round"/>
<path d="M178.65 162.06C178.65 162.06 177.65 169.06 178.09 172.81C178.32 175.999 178.32 179.201 178.09 182.39L173.71 183.85C173.71 183.85 172.46 171.76 172.88 169.05C173.3 166.34 173.71 164.47 173.71 164.47C173.71 164.47 176.49 162 178.65 162.06Z" fill="#263238" stroke="#263238" stroke-linecap="round" stroke-linejoin="round"/>
<path d="M169.75 226.17C169.75 226.17 166.84 227.17 165.75 232.17C164.66 237.17 167.63 242.6 173.67 245.1C179.71 247.6 189.52 248.85 198.67 249.27C207.82 249.69 215.34 248.85 218.67 243.01C222 237.17 220.75 230.92 216.79 229.88C212.83 228.84 208.45 231.13 193.24 229.67C185.341 229.027 177.493 227.858 169.75 226.17Z" fill="#6D51FF" stroke="#263238" stroke-linecap="round" stroke-linejoin="round"/>
<path d="M206.53 233.38C202.68 237.87 201.72 248.78 209.42 248.78H209.81C213.81 247.98 216.9 246.29 218.74 243.06C221.33 238.52 221.14 233.73 219.07 231.34L215.97 229.25C214.192 229.217 212.427 229.569 210.798 230.282C209.168 230.995 207.713 232.051 206.53 233.38Z" fill="#6D51FF" stroke="#263238" stroke-linecap="round" stroke-linejoin="round"/>
<path d="M211.18 239.26C211.18 239.26 211.03 242.45 214.81 241.26C215.701 240.904 216.473 240.304 217.039 239.53C217.605 238.755 217.942 237.837 218.01 236.88C218.041 236.645 218.058 236.407 218.06 236.17C218.11 234.57 217.55 233.17 216.41 232.84C213.79 232.11 207.41 236.9 207.41 240.39C207.41 243.88 211.48 245.04 215.11 242.71C218.74 240.38 219.76 237.92 219.47 232.11" stroke="#263238" stroke-linecap="round" stroke-linejoin="round"/>
<path d="M170.59 179.27C170.59 179.27 187.26 180.73 196.23 180.93C205.2 181.13 209.57 180.31 212.23 183.23C214.89 186.15 218.23 217.41 219.73 223.04C221.23 228.67 218.73 230.34 212.44 232.63C206.15 234.92 196.18 234.92 184.71 232.63C173.24 230.34 168.24 228.63 166.99 223.63C165.74 218.63 166.58 202.57 166.58 193.63C166.58 184.69 165.79 179.48 170.59 179.27Z" fill="#6D51FF" stroke="#263238" stroke-linecap="round" stroke-linejoin="round"/>
<path d="M210 211.84C212.63 211.56 215.216 210.959 217.7 210.05C216.1 199.05 214.07 185.13 212.31 183.23C209.6 180.31 205.22 181.14 196.31 180.93C187.4 180.72 170.67 179.27 170.67 179.27C165.87 179.48 166.67 184.69 166.67 193.65C166.67 197.36 166.52 202.27 166.45 207.12C167.63 207.83 181.32 215.25 210 211.84Z" fill="#6D51FF" stroke="#263238" stroke-linecap="round" stroke-linejoin="round"/>
<path d="M170.12 206.11C170.389 209.132 170.309 212.176 169.88 215.18C169.465 217.704 169.228 220.253 169.17 222.81L173.22 224.48C173.22 224.48 173.94 218.04 174.42 215.18C174.746 212.486 174.907 209.774 174.9 207.06L170.12 206.11Z" fill="#263238" stroke="#263238" stroke-linecap="round" stroke-linejoin="round"/>
<path d="M201.14 209C201.14 209 200.9 213.3 200.43 216.4C199.96 219.5 199.23 226.84 199.23 226.84H204C204 226.84 205.67 219.5 205.67 216.64C205.67 213.78 205.91 208.76 205.91 208.76L201.14 209Z" fill="#263238" stroke="#263238" stroke-linecap="round" stroke-linejoin="round"/>
<path d="M219.78 223C218.32 217.37 214.99 186.11 212.28 183.19C211.862 182.747 211.38 182.37 210.85 182.07C209.11 182.63 206.55 184.01 207.69 187.15C209.36 191.73 211.03 214.25 210.19 221.33C209.35 228.41 204.77 231.76 208.94 233.42L209.17 233.51C210.297 233.283 211.407 232.975 212.49 232.59C218.74 230.34 221.24 228.67 219.78 223Z" fill="#6D51FF" stroke="#263238" stroke-linecap="round" stroke-linejoin="round"/>
<path d="M193.35 260.25L185.18 258.06" stroke="white" stroke-linecap="round" stroke-linejoin="round"/>
<path d="M175.57 124.63C175.57 124.63 177.88 137.63 177.88 139.14C177.88 140.65 178.26 141.05 184.38 141.43C190.5 141.81 198.89 142.2 203.67 139.72C208.45 137.24 216.85 131.5 218.57 127.72C220.29 123.94 219.14 123.33 214.57 123.33H208.84C208.84 123.33 207.5 117.79 203.84 116.07C200.18 114.35 194.48 110.91 188.37 113.59C182.26 116.27 177.7 117.54 175.57 124.63Z" fill="#6D51FF" stroke="#263238" stroke-linecap="round" stroke-linejoin="round"/>
<path d="M207.49 136.66C207.073 137.056 206.752 137.542 206.55 138.08C211.26 135.23 217.16 130.81 218.55 127.68C220.27 123.86 219.12 123.29 214.55 123.29H208.82C208.82 123.29 210.54 128.83 210.54 130.74C210.54 132.65 209.78 134.37 207.49 136.66Z" fill="#263238" stroke="#263238" stroke-linecap="round" stroke-linejoin="round"/>
<path d="M181.37 139.64C181.37 139.64 179.77 134.05 182.7 133.52C185.63 132.99 188.83 140.18 188.83 140.18C186.331 140.467 183.801 140.284 181.37 139.64Z" fill="#263238" stroke="#263238" stroke-linecap="round" stroke-linejoin="round"/>
<path d="M261.33 393.47H298.93C298.21 388.87 295.25 389.68 294.86 382.55C294.66 378.96 297.98 374.55 297.7 369.81C297.46 365.92 293.63 361.94 293.33 357.5C293.07 353.5 296.33 349.04 296.02 344.72C295.72 340.64 291.83 336.72 291.49 332.47C291.15 328.22 294.36 323.84 293.98 319.65C293.6 315.46 289.65 311.65 289.23 307.49C288.81 303.33 291.9 298.67 291.42 294.61C290.92 290.3 286.85 286.61 286.3 282.61C285.69 278.18 288.57 273.46 287.9 269.61C287.07 264.93 282.72 261.55 281.8 258.1C280.09 251.67 280.31 245.47 278.29 245.1C276.27 244.73 275.65 250.74 274.02 257.53C273.2 260.94 268.94 264.4 268.24 269.08C267.67 272.87 270.68 277.48 270.19 281.88C269.75 285.83 265.78 289.62 265.4 293.88C265.03 297.88 268.25 302.36 267.94 306.57C267.63 310.78 263.78 314.57 263.52 318.74C263.26 322.91 266.57 327.27 266.34 331.38C266.11 335.49 262.34 339.57 262.14 343.62C261.93 347.91 265.32 352.23 265.14 356.21C264.96 360.61 261.23 364.65 261.14 368.5C260.97 373.18 264.4 377.5 264.3 381.06C264.07 388.78 260.53 387.18 260.4 393.4L261.33 393.47Z" fill="#6D51FF"/>
<path opacity="0.5" d="M261.33 393.47H298.93C298.21 388.87 295.25 389.68 294.86 382.55C294.66 378.96 297.98 374.55 297.7 369.81C297.46 365.92 293.63 361.94 293.33 357.5C293.07 353.5 296.33 349.04 296.02 344.72C295.72 340.64 291.83 336.72 291.49 332.47C291.15 328.22 294.36 323.84 293.98 319.65C293.6 315.46 289.65 311.65 289.23 307.49C288.81 303.33 291.9 298.67 291.42 294.61C290.92 290.3 286.85 286.61 286.3 282.61C285.69 278.18 288.57 273.46 287.9 269.61C287.07 264.93 282.72 261.55 281.8 258.1C280.09 251.67 280.31 245.47 278.29 245.1C276.27 244.73 275.65 250.74 274.02 257.53C273.2 260.94 268.94 264.4 268.24 269.08C267.67 272.87 270.68 277.48 270.19 281.88C269.75 285.83 265.78 289.62 265.4 293.88C265.03 297.88 268.25 302.36 267.94 306.57C267.63 310.78 263.78 314.57 263.52 318.74C263.26 322.91 266.57 327.27 266.34 331.38C266.11 335.49 262.34 339.57 262.14 343.62C261.93 347.91 265.32 352.23 265.14 356.21C264.96 360.61 261.23 364.65 261.14 368.5C260.97 373.18 264.4 377.5 264.3 381.06C264.07 388.78 260.53 387.18 260.4 393.4L261.33 393.47Z" fill="white"/>
<path d="M277.47 257.45V391.73" stroke="#263238" stroke-miterlimit="10"/>
<path d="M283.34 271.53L277.22 276.82L272.21 270.14" stroke="#263238" stroke-miterlimit="10"/>
<path d="M283.34 294.9L277.22 300.19L272.21 293.51" stroke="#263238" stroke-miterlimit="10"/>
<path d="M283.34 316.88L277.22 322.17L272.21 315.49" stroke="#263238" stroke-miterlimit="10"/>
<path d="M283.34 343.04L277.22 348.33L272.21 341.65" stroke="#263238" stroke-miterlimit="10"/>
<path d="M283.34 369.47L277.22 374.76L272.21 368.08" stroke="#263238" stroke-miterlimit="10"/>
<path d="M46 370.5H94.78C93.84 364.5 90.01 365.58 89.5 356.33C89.25 351.68 93.56 345.91 93.18 339.8C92.88 334.8 87.91 329.59 87.52 323.8C87.17 318.6 91.41 312.8 91 307.22C90.61 301.92 85.58 296.83 85.13 291.33C84.68 285.83 88.85 280.12 88.36 274.69C87.87 269.26 82.74 264.26 82.2 258.91C81.64 253.4 85.66 247.47 85.05 242.2C84.39 236.61 79.12 231.78 78.4 226.63C77.6 220.89 81.34 214.76 80.47 209.8C79.39 203.73 73.75 199.34 72.56 194.87C70.34 186.52 70.62 178.48 68 177.96C65.21 177.4 64.58 185.28 62.46 194.09C61.4 198.52 55.87 203 54.96 209.09C54.23 214 58.13 219.98 57.49 225.7C56.92 230.82 51.78 235.7 51.28 241.3C50.81 246.53 54.98 252.3 54.57 257.77C54.17 263.09 49.18 268.16 48.83 273.56C48.48 278.96 52.83 284.62 52.5 289.95C52.17 295.28 47.3 300.58 47.05 305.84C46.78 311.4 51.17 317.01 50.96 322.17C50.72 327.89 45.89 333.17 45.71 338.17C45.49 344.23 49.95 349.83 49.81 354.45C49.51 364.45 44.92 362.4 44.81 370.45L46 370.5Z" fill="#6D51FF"/>
<path d="M66.97 194.02V368.24" stroke="#263238" stroke-miterlimit="10"/>
<path d="M74.59 212.29L66.64 219.15L60.14 210.48" stroke="#263238" stroke-miterlimit="10"/>
<path d="M74.59 242.61L66.64 249.47L60.14 240.81" stroke="#263238" stroke-miterlimit="10"/>
<path d="M74.59 271.13L66.64 277.99L60.14 269.33" stroke="#263238" stroke-miterlimit="10"/>
<path d="M74.59 305.07L66.64 311.93L60.14 303.26" stroke="#263238" stroke-miterlimit="10"/>
<path d="M74.59 339.36L66.64 346.22L60.14 337.56" stroke="#263238" stroke-miterlimit="10"/>
<path d="M16.49 378.13H52.61C51.92 373.71 49.08 374.49 48.7 367.64C48.51 364.19 51.7 359.93 51.43 355.4C51.2 351.67 47.52 347.84 47.24 343.57C46.98 339.72 50.12 335.45 49.81 331.3C49.53 327.37 45.81 323.61 45.47 319.53C45.13 315.45 48.22 311.23 47.86 307.21C47.5 303.19 43.7 299.49 43.3 295.53C42.9 291.57 45.86 287.06 45.4 283.16C44.92 279.02 41.01 275.44 40.48 271.63C39.89 267.38 42.66 262.84 42.01 259.17C41.22 254.68 37.01 251.43 36.16 248.11C34.52 241.94 34.72 235.98 32.79 235.59C30.86 235.2 30.25 241.02 28.68 247.54C27.89 250.82 23.8 254.14 23.13 258.63C22.59 262.28 25.48 266.7 25.01 270.93C24.58 274.72 20.77 278.36 20.4 282.48C20.05 286.36 23.14 290.63 22.84 294.68C22.54 298.73 18.84 302.37 18.59 306.37C18.34 310.37 21.53 314.56 21.31 318.51C21.09 322.46 17.46 326.38 17.31 330.27C17.11 334.39 20.31 338.54 20.2 342.36C20.03 346.59 16.45 350.47 16.32 354.17C16.16 358.67 19.46 362.81 19.32 366.23C19.1 373.66 15.7 372.12 15.58 378.09L16.49 378.13Z" fill="#6D51FF"/>
<path opacity="0.5" d="M16.49 378.13H52.61C51.92 373.71 49.08 374.49 48.7 367.64C48.51 364.19 51.7 359.93 51.43 355.4C51.2 351.67 47.52 347.84 47.24 343.57C46.98 339.72 50.12 335.45 49.81 331.3C49.53 327.37 45.81 323.61 45.47 319.53C45.13 315.45 48.22 311.23 47.86 307.21C47.5 303.19 43.7 299.49 43.3 295.53C42.9 291.57 45.86 287.06 45.4 283.16C44.92 279.02 41.01 275.44 40.48 271.63C39.89 267.38 42.66 262.84 42.01 259.17C41.22 254.68 37.01 251.43 36.16 248.11C34.52 241.94 34.72 235.98 32.79 235.59C30.86 235.2 30.25 241.02 28.68 247.54C27.89 250.82 23.8 254.14 23.13 258.63C22.59 262.28 25.48 266.7 25.01 270.93C24.58 274.72 20.77 278.36 20.4 282.48C20.05 286.36 23.14 290.63 22.84 294.68C22.54 298.73 18.84 302.37 18.59 306.37C18.34 310.37 21.53 314.56 21.31 318.51C21.09 322.46 17.46 326.38 17.31 330.27C17.11 334.39 20.31 338.54 20.2 342.36C20.03 346.59 16.45 350.47 16.32 354.17C16.16 358.67 19.46 362.81 19.32 366.23C19.1 373.66 15.7 372.12 15.58 378.09L16.49 378.13Z" fill="white"/>
<path d="M32 247.47V376.46" stroke="#263238" stroke-miterlimit="10"/>
<path d="M37.64 260.99L31.76 266.07L26.95 259.65" stroke="#263238" stroke-miterlimit="10"/>
<path d="M37.64 283.44L31.76 288.52L26.95 282.1" stroke="#263238" stroke-miterlimit="10"/>
<path d="M37.64 304.56L31.76 309.64L26.95 303.22" stroke="#263238" stroke-miterlimit="10"/>
<path d="M37.64 329.68L31.76 334.76L26.95 328.35" stroke="#263238" stroke-miterlimit="10"/>
<path d="M37.64 355.07L31.76 360.15L26.95 353.74" stroke="#263238" stroke-miterlimit="10"/>
<path d="M294.3 404.07H343.09C342.15 398.07 338.32 399.15 337.81 389.91C337.55 385.25 341.86 379.49 341.49 373.37C341.18 368.37 336.21 363.17 335.83 357.37C335.48 352.17 339.72 346.37 339.31 340.79C338.92 335.49 333.88 330.41 333.44 324.9C333 319.39 337.16 313.69 336.67 308.26C336.18 302.83 331.05 297.84 330.51 292.48C329.97 287.12 333.97 281.05 333.35 275.78C332.7 270.18 327.42 265.35 326.71 260.2C325.91 254.46 329.65 248.33 328.77 243.38C327.7 237.31 322.05 232.92 320.86 228.44C318.65 220.1 318.93 212.06 316.31 211.53C313.52 210.98 312.88 218.86 310.77 227.67C309.7 232.09 304.18 236.58 303.27 242.67C302.54 247.59 306.44 253.57 305.8 259.28C305.23 264.4 300.08 269.28 299.58 274.88C299.11 280.12 303.29 285.88 302.88 291.36C302.48 296.67 297.49 301.74 297.14 307.14C296.79 312.54 301.14 318.2 300.81 323.54C300.48 328.88 295.61 334.16 295.35 339.42C295.09 344.98 299.48 350.6 299.26 355.76C299.03 361.47 294.19 366.76 294.02 371.76C293.8 377.83 298.26 383.43 298.12 388.05C297.82 398.05 293.23 396 293.07 404.05L294.3 404.07Z" fill="#6D51FF"/>
<path d="M315.25 227.6V401.82" stroke="#263238" stroke-miterlimit="10"/>
<path d="M322.86 245.86L314.92 252.72L308.42 244.06" stroke="#263238" stroke-miterlimit="10"/>
<path d="M322.86 276.19L314.92 283.05L308.42 274.38" stroke="#263238" stroke-miterlimit="10"/>
<path d="M322.86 304.71L314.92 311.56L308.42 302.9" stroke="#263238" stroke-miterlimit="10"/>
<path d="M322.86 338.64L314.92 345.5L308.42 336.84" stroke="#263238" stroke-miterlimit="10"/>
<path d="M322.86 372.94L314.92 379.8L308.42 371.13" stroke="#263238" stroke-miterlimit="10"/>
<path d="M117.995 264.679L111.878 264.475L108.205 374.623L114.322 374.827L117.995 264.679Z" fill="#263238" stroke="#263238" stroke-linecap="round" stroke-linejoin="round"/>
<path d="M142.77 233.77L139.44 234.57V245.59L143.13 246.67L142.77 233.77Z" fill="#6D51FF" stroke="#263238" stroke-linecap="round" stroke-linejoin="round"/>
<path d="M78.22 227.69L78.38 265.04L140.32 271.46L139.73 283.28L162.54 263.71L142.77 233.77L142.72 245.6L78.22 227.69Z" fill="#263238" stroke="#263238" stroke-linecap="round" stroke-linejoin="round"/>
<path d="M78.22 227.69L73.22 228.25L73.85 266.68L78.38 265.04L78.22 227.69Z" fill="#6D51FF" stroke="#263238" stroke-linecap="round" stroke-linejoin="round"/>
<path d="M73.85 266.68L137.5 272.98L140.32 271.46L78.38 265.04L73.85 266.68Z" fill="#6D51FF" stroke="#263238" stroke-linecap="round" stroke-linejoin="round"/>
<path d="M137.5 272.98L137.34 283.41L139.73 283.28L140.32 271.46L137.5 272.98Z" fill="#6D51FF" stroke="#263238" stroke-linecap="round" stroke-linejoin="round"/>
<path d="M15.05 379.89C15.05 379.89 101.23 337.38 232.27 359.08C334.94 376.08 368.74 420 368.74 420" fill="white"/>
<path d="M15.05 379.89C15.05 379.89 101.23 337.38 232.27 359.08C334.94 376.08 368.74 420 368.74 420" stroke="#263238" stroke-linecap="round" stroke-linejoin="round"/>
</svg>
