<svg width="24" height="25" viewBox="0 0 24 25" fill="none" xmlns="http://www.w3.org/2000/svg">
<path fill-rule="evenodd" clip-rule="evenodd" d="M8.47337 2.75H15.5266C16.203 2.74999 16.7485 2.74999 17.1925 2.78029C17.6491 2.81144 18.0528 2.87711 18.4351 3.03545C19.3539 3.41605 20.0839 4.14608 20.4646 5.06494C20.6229 5.44721 20.6886 5.85092 20.7197 6.30748C20.75 6.75148 20.75 7.29704 20.75 7.97336V20.2241C20.75 20.6641 20.75 21.0368 20.7279 21.3289C20.7066 21.6119 20.6587 21.9529 20.4711 22.2441C20.0991 22.8213 19.424 23.1277 18.7447 23.0275C18.4019 22.977 18.1138 22.7884 17.8867 22.6182C17.6524 22.4424 17.3719 22.197 17.0407 21.9072L12.4939 17.9287C12.3314 17.7865 12.2357 17.7033 12.1603 17.6454C12.1137 17.6096 12.0917 17.597 12.0858 17.594C12.0304 17.5737 11.9696 17.5737 11.9142 17.594C11.9083 17.597 11.8863 17.6096 11.8397 17.6454C11.7643 17.7033 11.6686 17.7865 11.5061 17.9287L6.95922 21.9073C6.62809 22.197 6.34762 22.4424 6.11326 22.6182C5.8862 22.7884 5.59812 22.977 5.25533 23.0275C4.57602 23.1277 3.90088 22.8213 3.52895 22.2441C3.34127 21.9529 3.29345 21.6119 3.27206 21.3289C3.24998 21.0368 3.24999 20.6641 3.25 20.2241L3.25 7.97337C3.25 7.29705 3.24999 6.75149 3.28029 6.30748C3.31144 5.85092 3.37711 5.44721 3.53545 5.06494C3.91606 4.14608 4.64608 3.41605 5.56494 3.03545C5.94721 2.87711 6.35092 2.81144 6.80748 2.78029C7.25149 2.74999 7.79705 2.74999 8.47337 2.75ZM12.0842 17.5932C12.0842 17.5932 12.0851 17.5936 12.0858 17.594L12.0842 17.5932ZM6.90959 4.27681C6.5294 4.30275 6.308 4.35125 6.13896 4.42127C5.58765 4.64963 5.14963 5.08765 4.92127 5.63896C4.85125 5.808 4.80275 6.0294 4.77681 6.40959C4.75041 6.79651 4.75 7.29083 4.75 8V20.1943C4.75 20.6721 4.75052 20.9873 4.76779 21.2159C4.77911 21.3656 4.79547 21.4293 4.79992 21.4461C4.85111 21.5145 4.9338 21.552 5.01894 21.5455C5.03452 21.5378 5.09326 21.5081 5.21339 21.4181C5.39678 21.2806 5.63431 21.0734 5.99388 20.7588L10.5184 16.7999C10.5394 16.7815 10.5604 16.7629 10.5816 16.7443C10.8249 16.5303 11.0817 16.3044 11.3845 16.1906C11.7813 16.0415 12.2187 16.0415 12.6155 16.1906C12.9183 16.3044 13.1751 16.5303 13.4184 16.7443C13.4396 16.7629 13.4606 16.7815 13.4816 16.7999L18.0061 20.7588C18.3657 21.0734 18.6032 21.2806 18.7866 21.4181C18.9067 21.5081 18.9655 21.5378 18.9811 21.5455C19.0662 21.552 19.1489 21.5145 19.2001 21.4461C19.2045 21.4293 19.2209 21.3656 19.2322 21.2159C19.2495 20.9873 19.25 20.6721 19.25 20.1943V8C19.25 7.29083 19.2496 6.79651 19.2232 6.40959C19.1973 6.0294 19.1487 5.808 19.0787 5.63896C18.8504 5.08765 18.4124 4.64963 17.861 4.42127C17.692 4.35125 17.4706 4.30275 17.0904 4.27681C16.7035 4.25041 16.2092 4.25 15.5 4.25H8.5C7.79083 4.25 7.29651 4.25041 6.90959 4.27681Z" fill="#B4A5FD"/>
</svg>
