<svg width="18" height="23" viewBox="0 0 18 23" fill="none" xmlns="http://www.w3.org/2000/svg">
<path d="M5 3.5V15.5C5 16.0304 5.21071 16.5391 5.58579 16.9142C5.96086 17.2893 6.46957 17.5 7 17.5H15C15.5304 17.5 16.0391 17.2893 16.4142 16.9142C16.7893 16.5391 17 16.0304 17 15.5V6.742C17 6.47556 16.9467 6.21181 16.8433 5.96624C16.7399 5.72068 16.5885 5.49824 16.398 5.312L13.083 2.07C12.7094 1.70466 12.2076 1.50007 11.685 1.5H7C6.46957 1.5 5.96086 1.71071 5.58579 2.08579C5.21071 2.46086 5 2.96957 5 3.5V3.5Z" stroke="#989898" stroke-width="2" stroke-linecap="round" stroke-linejoin="round"/>
<path d="M13 17.5V19.5C13 20.0304 12.7893 20.5391 12.4142 20.9142C12.0391 21.2893 11.5304 21.5 11 21.5H3C2.46957 21.5 1.96086 21.2893 1.58579 20.9142C1.21071 20.5391 1 20.0304 1 19.5V8.5C1 7.96957 1.21071 7.46086 1.58579 7.08579C1.96086 6.71071 2.46957 6.5 3 6.5H5" stroke="#989898" stroke-width="2" stroke-linecap="round" stroke-linejoin="round"/>
</svg>
