<svg width="23" height="23" viewBox="0 0 23 23" fill="none" xmlns="http://www.w3.org/2000/svg">
<path fill-rule="evenodd" clip-rule="evenodd" d="M10.013 1.36581C10.8615 0.878063 11.9054 0.878063 12.7539 1.36581C13.1334 1.58397 13.4209 1.92555 13.6856 2.30906C13.9487 2.69029 14.2439 3.19711 14.608 3.82232L15.2456 4.91688C15.4792 5.318 15.5451 5.42367 15.6202 5.50673C15.7365 5.63549 15.8785 5.73861 16.0369 5.8095C16.1391 5.85523 16.2599 5.88525 16.7136 5.98349L17.9516 6.25157C18.6588 6.40469 19.232 6.52882 19.6759 6.66123C20.1224 6.79444 20.5361 6.96231 20.8609 7.25585C21.5869 7.91214 21.9095 8.90488 21.7078 9.86261C21.6176 10.291 21.3816 10.67 21.0987 11.0402C20.8174 11.4082 20.4266 11.8455 19.9446 12.385L19.1005 13.3297C18.7912 13.6758 18.7111 13.7711 18.6553 13.8682C18.5688 14.0187 18.5146 14.1855 18.4961 14.3581C18.4842 14.4694 18.493 14.5936 18.5398 15.0555L18.6674 16.3158C18.7403 17.0356 18.7994 17.6191 18.8106 18.0821C18.8219 18.548 18.7901 18.9933 18.6113 19.3929C18.2115 20.2862 17.367 20.8998 16.3938 21.004C15.9585 21.0505 15.5252 20.9432 15.0856 20.7885C14.6487 20.6347 14.112 20.3982 13.4499 20.1064L12.2908 19.5956C11.866 19.4085 11.7506 19.3617 11.641 19.3386C11.4712 19.3029 11.2957 19.3029 11.1259 19.3386C11.0163 19.3617 10.9009 19.4085 10.4761 19.5956L9.31699 20.1064C8.65491 20.3982 8.1182 20.6347 7.68128 20.7885C7.24173 20.9432 6.80837 21.0505 6.37309 21.004C5.39992 20.8998 4.55544 20.2862 4.15565 19.3929C3.97683 18.9933 3.94502 18.548 3.95632 18.0821C3.96755 17.6191 4.02664 17.0356 4.09953 16.3157L4.22713 15.0555C4.27389 14.5936 4.28269 14.4694 4.27078 14.3581C4.25231 14.1855 4.19809 14.0187 4.1116 13.8682C4.05581 13.7711 3.97567 13.6758 3.66638 13.3297L2.82237 12.3851C2.34029 11.8456 1.94951 11.4082 1.66825 11.0402C1.38529 10.67 1.14927 10.291 1.05907 9.86261C0.857408 8.90488 1.17997 7.91214 1.90606 7.25585C2.23082 6.96231 2.64452 6.79444 3.09105 6.66123C3.53492 6.52882 4.10814 6.4047 4.81527 6.25158L6.05329 5.98349C6.50697 5.88525 6.62784 5.85523 6.73002 5.8095C6.88845 5.73861 7.03037 5.63549 7.14676 5.50673C7.22183 5.42367 7.28772 5.318 7.52135 4.91688L8.15887 3.82233C8.52302 3.19711 8.81821 2.69029 9.0813 2.30906C9.34598 1.92555 9.63347 1.58397 10.013 1.36581Z" fill="#EAB701" stroke="#EAB701" stroke-width="2" stroke-linecap="round" stroke-linejoin="round"/>
</svg>
