<svg width="24" height="24" viewBox="0 0 24 24" fill="none" xmlns="http://www.w3.org/2000/svg">
<path fill-rule="evenodd" clip-rule="evenodd" d="M8.25 17C8.25 14.9289 9.92893 13.25 12 13.25C14.0711 13.25 15.75 14.9289 15.75 17V22C15.75 22.4142 15.4142 22.75 15 22.75H9C8.58579 22.75 8.25 22.4142 8.25 22V17ZM12 14.75C10.7574 14.75 9.75 15.7574 9.75 17V21.25H14.25V17C14.25 15.7574 13.2426 14.75 12 14.75Z" fill="#6D51FF"/>
<path fill-rule="evenodd" clip-rule="evenodd" d="M12.7302 3.67238C12.2569 3.51 11.7431 3.51 11.2698 3.67238C10.9437 3.78426 10.62 4.02348 9.69772 4.74082L5.19772 8.24082C4.60359 8.70292 4.40311 8.86459 4.25374 9.04843C4.03768 9.31436 3.8852 9.62612 3.80794 9.95993C3.75453 10.1907 3.75 10.4482 3.75 11.2009V17.5C3.75 18.2092 3.75041 18.7035 3.77681 19.0904C3.80275 19.4706 3.85125 19.692 3.92127 19.8611C4.14963 20.4124 4.58765 20.8504 5.13896 21.0787C5.308 21.1488 5.5294 21.1973 5.90959 21.2232C6.29651 21.2496 6.79083 21.25 7.5 21.25H16.5C17.2092 21.25 17.7035 21.2496 18.0904 21.2232C18.4706 21.1973 18.692 21.1488 18.861 21.0787C19.4124 20.8504 19.8504 20.4124 20.0787 19.8611C20.1487 19.692 20.1973 19.4706 20.2232 19.0904C20.2496 18.7035 20.25 18.2092 20.25 17.5V11.2009C20.25 10.4482 20.2455 10.1907 20.1921 9.95993C20.1148 9.62612 19.9623 9.31436 19.7463 9.04843C19.5969 8.86459 19.3964 8.70292 18.8023 8.24082L14.3023 4.74082C13.38 4.02348 13.0563 3.78426 12.7302 3.67238ZM10.783 2.25357C11.5718 1.98294 12.4282 1.98294 13.217 2.25357C13.8107 2.45727 14.3431 2.87169 15.1169 3.47407C15.1518 3.50126 15.1872 3.52884 15.2232 3.55679L19.7232 7.05679C19.7456 7.07426 19.7678 7.09148 19.7897 7.10847C20.2922 7.49907 20.6395 7.76905 20.9104 8.10255C21.2705 8.54576 21.5247 9.06535 21.6534 9.62171C21.7503 10.0403 21.7502 10.4802 21.75 11.1167C21.75 11.1444 21.75 11.1724 21.75 11.2009V17.5267C21.75 18.203 21.75 18.7485 21.7197 19.1925C21.6886 19.6491 21.6229 20.0528 21.4645 20.4351C21.0839 21.3539 20.3539 22.084 19.4351 22.4646C19.0528 22.6229 18.6491 22.6886 18.1925 22.7197C17.7485 22.75 17.203 22.75 16.5266 22.75H7.47336C6.79704 22.75 6.25148 22.75 5.80748 22.7197C5.35092 22.6886 4.94721 22.6229 4.56494 22.4646C3.64608 22.084 2.91605 21.3539 2.53545 20.4351C2.37711 20.0528 2.31144 19.6491 2.28028 19.1925C2.24999 18.7485 2.24999 18.203 2.25 17.5266L2.25 11.2009C2.25 11.1724 2.24999 11.1444 2.24998 11.1167C2.24981 10.4802 2.24968 10.0403 2.34657 9.62171C2.47534 9.06535 2.72946 8.54576 3.08957 8.10255C3.36054 7.76905 3.70784 7.49908 4.21034 7.10847C4.2322 7.09148 4.25436 7.07426 4.27681 7.05679L8.77681 3.55679C8.81276 3.52883 8.84818 3.50126 8.88311 3.47407C9.65694 2.87169 10.1893 2.45727 10.783 2.25357Z" fill="#6D51FF"/>
</svg>
