<svg width="22" height="21" viewBox="0 0 22 21" fill="none" xmlns="http://www.w3.org/2000/svg">
<path fill-rule="evenodd" clip-rule="evenodd" d="M9.62954 0.589567C10.4781 0.101818 11.5219 0.101818 12.3705 0.589567C12.75 0.807725 13.0375 1.1493 13.3022 1.53282C13.5652 1.91404 13.8604 2.42086 14.2246 3.04607L14.8621 4.14064C15.0957 4.54175 15.1616 4.64743 15.2367 4.73048C15.3531 4.85924 15.495 4.96236 15.6534 5.03326C15.7556 5.07899 15.8765 5.109 16.3302 5.20725L17.5682 5.47533C18.2753 5.62845 18.8485 5.75258 19.2924 5.88499C19.7389 6.01819 20.1526 6.18606 20.4774 6.4796C21.2035 7.13589 21.526 8.12863 21.3244 9.08636C21.2342 9.51474 20.9982 9.89371 20.7152 10.2639C20.434 10.6319 20.0432 11.0693 19.5611 11.6088L18.7171 12.5534C18.4078 12.8996 18.3277 12.9949 18.2719 13.0919C18.1854 13.2424 18.1312 13.4093 18.1127 13.5818C18.1008 13.6932 18.1096 13.8174 18.1563 14.2792L18.2839 15.5395C18.3568 16.2593 18.4159 16.8429 18.4271 17.3059C18.4384 17.7717 18.4066 18.2171 18.2278 18.6166C17.828 19.51 16.9835 20.1236 16.0104 20.2277C15.5751 20.2743 15.1417 20.1669 14.7022 20.0122C14.2653 19.8585 13.7285 19.622 13.0665 19.3302L11.9073 18.8194C11.4825 18.6322 11.3671 18.5854 11.2576 18.5624C11.0877 18.5266 10.9123 18.5266 10.7424 18.5624C10.6329 18.5854 10.5175 18.6322 10.0927 18.8194L8.93354 19.3302C8.27146 19.622 7.73474 19.8585 7.29782 20.0122C6.85827 20.1669 6.42491 20.2743 5.98963 20.2277C5.01646 20.1236 4.17198 19.51 3.77219 18.6166C3.59337 18.2171 3.56156 17.7717 3.57286 17.3059C3.58409 16.8428 3.64318 16.2593 3.71607 15.5395L3.84367 14.2792C3.89043 13.8174 3.89923 13.6932 3.88732 13.5818C3.86885 13.4093 3.81464 13.2424 3.72814 13.0919C3.67235 12.9949 3.59221 12.8996 3.28292 12.5534L2.43891 11.6088C1.95684 11.0693 1.56605 10.632 1.28479 10.2639C1.00183 9.89371 0.765814 9.51474 0.675615 9.08636C0.473951 8.12863 0.796513 7.13589 1.5226 6.4796C1.84737 6.18606 2.26106 6.01819 2.7076 5.88499C3.15146 5.75258 3.72469 5.62845 4.43181 5.47533L5.66983 5.20724C6.12351 5.109 6.24438 5.07899 6.34656 5.03326C6.50499 4.96236 6.64692 4.85924 6.7633 4.73048C6.83837 4.64743 6.90426 4.54175 7.13789 4.14064L7.77541 3.04608C8.13956 2.42087 8.43475 1.91404 8.69785 1.53282C8.96252 1.1493 9.25001 0.807725 9.62954 0.589567ZM11.6229 1.89003C11.2372 1.66833 10.7628 1.66833 10.3771 1.89003C10.2938 1.93792 10.161 2.05352 9.93239 2.38481C9.70598 2.71289 9.43951 3.16934 9.05575 3.82822L8.43406 4.89559C8.42314 4.91433 8.41237 4.93285 8.40173 4.95114C8.21562 5.27104 8.06931 5.52255 7.8761 5.7363C7.62006 6.01958 7.30782 6.24643 6.95928 6.40241C6.69628 6.52011 6.41186 6.58154 6.0501 6.65969C6.02942 6.66415 6.00849 6.66868 5.9873 6.67327L4.78006 6.93469C4.03484 7.09606 3.51838 7.20844 3.1364 7.32239C2.75066 7.43746 2.59971 7.52797 2.52842 7.59241C2.19838 7.89072 2.05176 8.34196 2.14343 8.7773C2.16323 8.87133 2.23215 9.03328 2.47658 9.3531C2.71863 9.66981 3.0704 10.0643 3.57844 10.6329L4.40146 11.554C4.41591 11.5701 4.43019 11.5861 4.4443 11.6019C4.69103 11.8777 4.88502 12.0946 5.02861 12.3444C5.2189 12.6755 5.33816 13.0425 5.3788 13.4222C5.40947 13.7087 5.38001 13.9982 5.34254 14.3664C5.34039 14.3874 5.33823 14.4087 5.33604 14.4303L5.21161 15.6593C5.1348 16.4179 5.08208 16.9438 5.07242 17.3423C5.06266 17.7447 5.10209 17.9162 5.14134 18.0039C5.32307 18.41 5.70692 18.6889 6.14927 18.7362C6.24482 18.7465 6.42014 18.731 6.79984 18.5973C7.17585 18.465 7.65973 18.2523 8.35748 17.9449L9.48781 17.4468C9.50767 17.438 9.52727 17.4294 9.54663 17.4208C9.88522 17.2714 10.1514 17.1539 10.4334 17.0946C10.807 17.0159 11.193 17.0159 11.5666 17.0946C11.8486 17.1539 12.1148 17.2714 12.4534 17.4208C12.4727 17.4294 12.4923 17.438 12.5122 17.4468L13.6425 17.9449C14.3403 18.2523 14.8241 18.465 15.2002 18.5973C15.5799 18.731 15.7552 18.7465 15.8507 18.7362C16.2931 18.6889 16.6769 18.41 16.8587 18.0039C16.8979 17.9162 16.9373 17.7447 16.9276 17.3423C16.9179 16.9438 16.8652 16.4179 16.7884 15.6593L16.664 14.4303C16.6618 14.4087 16.6596 14.3874 16.6575 14.3664C16.62 13.9982 16.5905 13.7087 16.6212 13.4222C16.6618 13.0425 16.7811 12.6755 16.9714 12.3444C17.115 12.0946 17.309 11.8777 17.5557 11.6019C17.5698 11.5861 17.5841 11.5701 17.5985 11.554L18.4216 10.6329C18.9296 10.0643 19.2814 9.66981 19.5234 9.3531C19.7678 9.03328 19.8368 8.87133 19.8566 8.7773C19.9482 8.34196 19.8016 7.89072 19.4716 7.59241C19.4003 7.52797 19.2493 7.43746 18.8636 7.32239C18.4816 7.20844 17.9652 7.09606 17.2199 6.93469L16.0127 6.67327C15.9915 6.66868 15.9706 6.66415 15.9499 6.65969C15.5881 6.58154 15.3037 6.52011 15.0407 6.40241C14.6922 6.24643 14.3799 6.01958 14.1239 5.7363C13.9307 5.52255 13.7844 5.27104 13.5983 4.95114C13.5876 4.93285 13.5769 4.91433 13.5659 4.89559L12.9443 3.82822C12.5605 3.16934 12.294 2.71289 12.0676 2.38481C11.839 2.05352 11.7062 1.93792 11.6229 1.89003Z" fill="#7D8588"/>
</svg>
