<svg width="20" height="21" viewBox="0 0 20 21" fill="none" xmlns="http://www.w3.org/2000/svg">
<path fill-rule="evenodd" clip-rule="evenodd" d="M8.8842 0.249963C8.06624 0.249694 7.50809 0.24951 7.02943 0.377767C5.73533 0.724518 4.72453 1.73532 4.37778 3.02942C4.2857 3.37306 4.25982 3.75768 4.25265 4.24999H1C0.585786 4.24999 0.25 4.58577 0.25 4.99999C0.25 5.4142 0.585786 5.74999 1 5.74999H2.25V15.5266C2.24999 16.2029 2.24999 16.7485 2.28029 17.1925C2.31144 17.6491 2.37711 18.0528 2.53545 18.4351C2.91605 19.3539 3.64608 20.0839 4.56494 20.4645C4.94721 20.6229 5.35092 20.6886 5.80748 20.7197C6.25148 20.75 6.79704 20.75 7.47336 20.75H12.5266C13.203 20.75 13.7485 20.75 14.1925 20.7197C14.6491 20.6886 15.0528 20.6229 15.4351 20.4645C16.3539 20.0839 17.0839 19.3539 17.4645 18.4351C17.6229 18.0528 17.6886 17.6491 17.7197 17.1925C17.75 16.7486 17.75 16.2031 17.75 15.5269V5.74999H19C19.4142 5.74999 19.75 5.4142 19.75 4.99999C19.75 4.58577 19.4142 4.24999 19 4.24999H15.7474C15.7402 3.75768 15.7143 3.37306 15.6222 3.02942C15.2755 1.73532 14.2647 0.724518 12.9706 0.377767C12.4919 0.24951 11.9338 0.249694 11.1158 0.249963H8.8842ZM14.2463 4.24999C14.2397 3.81502 14.2215 3.59751 14.1733 3.41765C13.9653 2.64119 13.3588 2.03471 12.5823 1.82666C12.3203 1.75643 11.9783 1.74999 11 1.74999H9C8.02174 1.74999 7.67974 1.75643 7.41766 1.82666C6.6412 2.03471 6.03472 2.64119 5.82667 3.41765C5.77847 3.59751 5.76032 3.81502 5.75367 4.24999H14.2463ZM8 9.24998C8.41421 9.24998 8.75 9.58577 8.75 9.99998V15C8.75 15.4142 8.41421 15.75 8 15.75C7.58579 15.75 7.25 15.4142 7.25 15L7.25 9.99998C7.25 9.58577 7.58579 9.24998 8 9.24998ZM12.75 9.99998C12.75 9.58577 12.4142 9.24998 12 9.24998C11.5858 9.24998 11.25 9.58577 11.25 9.99998V15C11.25 15.4142 11.5858 15.75 12 15.75C12.4142 15.75 12.75 15.4142 12.75 15V9.99998Z" fill="#6D51FF"/>
</svg>
